<svg xmlns="http://www.w3.org/2000/svg" viewBox="0 0 1600 420" role="img" aria-label="قیمت روز خودروها">
<defs>
 <linearGradient id="sky" x1="0" y1="0" x2="1" y2="1"><stop stop-color="#f6d59a"/><stop offset=".34" stop-color="#8fb7d6"/><stop offset=".7" stop-color="#275b91"/><stop offset="1" stop-color="#0b315d"/></linearGradient>
 <linearGradient id="road" x1="0" y1="0" x2="0" y2="1"><stop stop-color="#617486"/><stop offset="1" stop-color="#172a3d"/></linearGradient>
 <linearGradient id="silver" x1="0" y1="0" x2="0" y2="1"><stop stop-color="#fff"/><stop offset=".45" stop-color="#dce5ec"/><stop offset="1" stop-color="#899aa8"/></linearGradient>
 <linearGradient id="dark" x1="0" y1="0" x2="0" y2="1"><stop stop-color="#506171"/><stop offset=".42" stop-color="#172b3c"/><stop offset="1" stop-color="#07121d"/></linearGradient>
 <linearGradient id="blue" x1="0" y1="0" x2="0" y2="1"><stop stop-color="#38a8eb"/><stop offset=".48" stop-color="#0b6cad"/><stop offset="1" stop-color="#06416f"/></linearGradient>
 <filter id="blur"><feGaussianBlur stdDeviation="10"/></filter>
 <filter id="shadow"><feGaussianBlur stdDeviation="7"/></filter>
</defs>
<rect width="1600" height="420" fill="url(#sky)"/>
<circle cx="185" cy="92" r="70" fill="#ffe9ad" opacity=".9"/>
<path d="M0 210 180 88 310 184 500 48 720 215 920 72 1110 215 1315 70 1600 205V300H0Z" fill="#557898" opacity=".55"/>
<path d="M0 236 205 125 390 226 590 112 790 236 1010 126 1200 232 1405 105 1600 205V315H0Z" fill="#294f70" opacity=".72"/>
<g fill="#173f63" opacity=".55"><path d="M100 218h22v-58h18v58h20v-92h22v92h22v-120h25v120h22v-75h17v75h25v-105h28v105h20v-65h18v65z"/><path d="M1120 230h22v-78h18v78h18v-120h25v120h22v-58h18v58h25v-96h27v96h20v-137h26v137h22v-75h18v75h25v-112h25v112h18v-55h19v55h26v-94h25v94z"/></g>
<path d="M0 292Q400 262 800 292T1600 292V420H0Z" fill="url(#road)"/>
<path d="M0 348H1600" stroke="#d9e5ed" stroke-width="5" stroke-dasharray="45 30" opacity=".45"/>
<rect x="0" y="286" width="1600" height="3" fill="#e8f1f7" opacity=".35"/>
<g transform="translate(120 228) scale(.82)"><ellipse cx="190" cy="145" rx="225" ry="23" fill="#081522" opacity=".42" filter="url(#shadow)"/><path d="M18 116 47 60Q65 28 110 21h132q44 5 74 40l34 55q10 17-8 29H20q-14-14-2-29Z" fill="url(#silver)" stroke="#617789" stroke-width="3"/><path d="M91 29 119 73h124l31-44Z" fill="#294c67"/><path d="M49 91h270" stroke="#fff" stroke-width="4" opacity=".5"/><circle cx="82" cy="142" r="29" fill="#13202d"/><circle cx="82" cy="142" r="13" fill="#b8c5ce"/><circle cx="282" cy="142" r="29" fill="#13202d"/><circle cx="282" cy="142" r="13" fill="#b8c5ce"/><rect x="22" y="86" width="28" height="12" rx="6" fill="#fff4c6"/><rect x="314" y="86" width="25" height="12" rx="6" fill="#ff6d6d"/></g>
<g transform="translate(430 214) scale(.9)"><ellipse cx="190" cy="145" rx="228" ry="24" fill="#081522" opacity=".44" filter="url(#shadow)"/><path d="M16 118 47 60Q65 27 111 20h132q46 6 77 43l33 55q9 16-7 28H17q-14-13-1-28Z" fill="url(#dark)" stroke="#122435" stroke-width="3"/><path d="M91 28 121 75h124l31-46Z" fill="#7c95a9"/><path d="M48 91h272" stroke="#6f8292" stroke-width="4" opacity=".6"/><circle cx="83" cy="143" r="29" fill="#0a131c"/><circle cx="83" cy="143" r="13" fill="#91a0aa"/><circle cx="282" cy="143" r="29" fill="#0a131c"/><circle cx="282" cy="143" r="13" fill="#91a0aa"/><rect x="21" y="86" width="29" height="12" rx="6" fill="#fff4c6"/><rect x="317" y="86" width="25" height="12" rx="6" fill="#ff6969"/></g>
<g transform="translate(760 220) scale(.9)"><ellipse cx="190" cy="145" rx="228" ry="24" fill="#081522" opacity=".4" filter="url(#shadow)"/><path d="M16 118 47 60Q65 27 111 20h132q46 6 77 43l33 55q9 16-7 28H17q-14-13-1-28Z" fill="url(#blue)" stroke="#075287" stroke-width="3"/><path d="M91 28 121 75h124l31-46Z" fill="#174a6c"/><path d="M48 91h272" stroke="#7dd1f6" stroke-width="4" opacity=".65"/><circle cx="83" cy="143" r="29" fill="#0a1620"/><circle cx="83" cy="143" r="13" fill="#b4c6d1"/><circle cx="282" cy="143" r="29" fill="#0a1620"/><circle cx="282" cy="143" r="13" fill="#b4c6d1"/><rect x="21" y="86" width="29" height="12" rx="6" fill="#fff4c6"/><rect x="317" y="86" width="25" height="12" rx="6" fill="#ff6969"/></g>
<g transform="translate(1075 226) scale(.78)"><ellipse cx="190" cy="145" rx="225" ry="23" fill="#081522" opacity=".38" filter="url(#shadow)"/><path d="M18 116 47 60Q65 28 110 21h132q44 5 74 40l34 55q10 17-8 29H20q-14-14-2-29Z" fill="url(#silver)" stroke="#667b8c" stroke-width="3"/><path d="M91 29 119 73h124l31-44Z" fill="#365a75"/><circle cx="82" cy="142" r="29" fill="#13202d"/><circle cx="82" cy="142" r="13" fill="#b8c5ce"/><circle cx="282" cy="142" r="29" fill="#13202d"/><circle cx="282" cy="142" r="13" fill="#b8c5ce"/></g>
<g transform="translate(1350 236) scale(.58)"><ellipse cx="190" cy="145" rx="225" ry="23" fill="#081522" opacity=".32" filter="url(#shadow)"/><path d="M18 116 47 60Q65 28 110 21h132q44 5 74 40l34 55q10 17-8 29H20q-14-14-2-29Z" fill="url(#dark)" stroke="#516577" stroke-width="3"/><path d="M91 29 119 73h124l31-44Z" fill="#71899d"/><circle cx="82" cy="142" r="29" fill="#13202d"/><circle cx="82" cy="142" r="13" fill="#b8c5ce"/><circle cx="282" cy="142" r="29" fill="#13202d"/><circle cx="282" cy="142" r="13" fill="#b8c5ce"/></g>
<rect x="0" y="0" width="1600" height="420" fill="#0b4d8d" opacity=".12"/>
<text x="1510" y="92" text-anchor="end" direction="rtl" font-family="Vazirmatn,Arial,sans-serif" font-size="40" font-weight="900" fill="#fff">قیمت روز خودروها</text>
<text x="1510" y="130" text-anchor="end" direction="rtl" font-family="Vazirmatn,Arial,sans-serif" font-size="15" font-weight="700" fill="#dcecff">به‌روزترین قیمت‌ها از معتبرترین منابع</text>
</svg>